<svg width="261" height="52" viewBox="0 0 261 52" fill="none" xmlns="http://www.w3.org/2000/svg">
<path d="M0.0585938 0.144043V51.277H27.2906V31.526H20.6336V23.462H27.2906V16.691C27.2906 14.3261 28.2301 12.058 29.9023 10.3858C31.5746 8.71351 33.8427 7.77404 36.2076 7.77404H43.1666V15.024H38.1866C37.8144 15.024 37.4459 15.0973 37.1021 15.2398C36.7582 15.3822 36.4458 15.5909 36.1827 15.8541C35.9195 16.1173 35.7107 16.4297 35.5683 16.7735C35.4259 17.1174 35.3526 17.4859 35.3526 17.858V23.458H43.0406L41.9786 31.526H35.3536V51.277H51.1916V0.144043H0.0585938Z" fill="white"/>
<path d="M122.001 0H70.0006V52H122.001V0Z" fill="white"/>
<path d="M81.9756 7.91004C82.8208 7.91597 83.6454 8.17209 84.3452 8.64608C85.045 9.12007 85.5888 9.7907 85.9079 10.5734C86.227 11.3561 86.3072 12.2157 86.1383 13.0439C85.9695 13.8721 85.5591 14.6317 84.959 15.227C84.3589 15.8222 83.5959 16.2264 82.7664 16.3885C81.9368 16.5506 81.0779 16.4634 80.2978 16.1379C79.5178 15.8124 78.8516 15.2632 78.3833 14.5595C77.915 13.8559 77.6657 13.0293 77.6666 12.184C77.6735 11.0466 78.1308 9.95815 78.9384 9.15711C79.746 8.35606 80.8381 7.90764 81.9756 7.91004Z" fill="#2699FB"/>
<path d="M84.4666 43.5061H79.4466C79.1339 43.5061 78.834 43.3818 78.6129 43.1607C78.3918 42.9396 78.2676 42.6397 78.2676 42.3271V20.9211C78.2676 20.6084 78.3918 20.3085 78.6129 20.0874C78.834 19.8663 79.1339 19.7421 79.4466 19.7421H84.4666C84.7793 19.7421 85.0792 19.8663 85.3003 20.0874C85.5214 20.3085 85.6456 20.6084 85.6456 20.9211V42.3271C85.6456 42.6397 85.5214 42.9396 85.3003 43.1607C85.0792 43.3818 84.7793 43.5061 84.4666 43.5061Z" fill="#2699FB"/>
<path d="M113.351 27.261C113.351 25.1059 112.495 23.039 110.971 21.5151C109.447 19.9911 107.38 19.135 105.225 19.135H103.938C102.646 19.1354 101.379 19.4818 100.266 20.1381C99.1543 20.7944 98.2383 21.7367 97.6137 22.867C97.5915 22.863 97.5692 22.8603 97.5467 22.859V20.231C97.5467 20.1011 97.495 19.9764 97.4032 19.8845C97.3113 19.7926 97.1866 19.741 97.0567 19.741H90.7957C90.6657 19.741 90.5411 19.7926 90.4492 19.8845C90.3573 19.9764 90.3057 20.1011 90.3057 20.231V43.016C90.3055 43.0803 90.3181 43.144 90.3426 43.2035C90.3671 43.2629 90.4031 43.3169 90.4485 43.3624C90.494 43.408 90.5479 43.4441 90.6073 43.4687C90.6667 43.4933 90.7304 43.506 90.7947 43.506H97.1947C97.259 43.506 97.3227 43.4933 97.3822 43.4687C97.4416 43.4441 97.4957 43.408 97.5412 43.3625C97.5867 43.317 97.6227 43.263 97.6474 43.2035C97.672 43.1441 97.6847 43.0804 97.6847 43.016V29.855C97.6797 28.7595 98.1059 27.706 98.8712 26.922C99.6364 26.138 100.679 25.6865 101.775 25.665C102.322 25.6588 102.865 25.7612 103.373 25.9664C103.88 26.1716 104.342 26.4754 104.731 26.8603C105.12 27.2451 105.429 27.7034 105.64 28.2085C105.851 28.7137 105.96 29.2556 105.96 29.803V43.021C105.96 43.1508 106.011 43.2753 106.103 43.3671C106.195 43.459 106.319 43.5108 106.449 43.511H112.861C112.925 43.5111 112.989 43.4986 113.048 43.474C113.108 43.4494 113.162 43.4133 113.207 43.3678C113.253 43.3223 113.289 43.2682 113.314 43.2087C113.338 43.1492 113.351 43.0854 113.351 43.021V27.261Z" fill="#2699FB"/>
<path d="M193.001 0H141.001V52H193.001V0Z" fill="white"/>
<path d="M147.45 38.047C150.779 40.152 154.612 41.3253 158.549 41.4445C162.486 41.5636 166.383 40.6242 169.833 38.7243C173.283 36.8245 176.161 34.0336 178.165 30.6429C180.169 27.2522 181.227 23.3858 181.229 19.447C181.229 19.1437 181.223 18.842 181.211 18.542C181.651 18.196 184.37 16.016 185.037 14.615C183.634 15.1764 182.165 15.5574 180.667 15.749H180.653L180.665 15.742C180.865 15.609 183.649 13.714 184.026 11.455C182.817 12.07 181.564 12.5925 180.277 13.018C179.915 13.138 179.536 13.257 179.145 13.366C177.983 12.1255 176.444 11.3028 174.768 11.0253C173.091 10.7479 171.369 11.0313 169.87 11.8316C168.37 12.6319 167.177 13.9043 166.474 15.4518C165.771 16.9993 165.599 18.7354 165.983 20.391C159.846 19.9227 154.145 17.0414 150.129 12.378C150.129 12.378 146.437 17.418 152.329 22.6C151.157 22.5193 150.017 22.1795 148.993 21.605C148.887 23.4099 149.45 25.1904 150.576 26.6052C151.702 28.0201 153.31 28.9697 155.093 29.272C153.986 29.597 152.816 29.6461 151.686 29.415C152.152 30.9463 153.089 32.2917 154.363 33.26C155.638 34.2283 157.185 34.7703 158.786 34.809C157.217 36.096 155.402 37.0476 153.451 37.6051C151.5 38.1625 149.456 38.314 147.445 38.05L147.45 38.047Z" fill="#2699FB"/>
<path d="M261.001 0H209.001V52H261.001V0Z" fill="white"/>
<path d="M240.097 32.876C240.089 32.6805 240.045 32.488 239.969 32.308C239.923 32.1989 239.847 32.1052 239.749 32.0385C239.652 31.9717 239.537 31.9348 239.419 31.932C239.28 31.9219 239.142 31.9419 239.012 31.9905C238.882 32.0392 238.765 32.1155 238.668 32.214C238.612 32.266 238.569 32.3299 238.542 32.401V38.457V38.606C238.542 38.606 238.594 38.676 238.601 38.685C238.767 38.8817 238.991 39.0198 239.242 39.079C239.328 39.1093 239.419 39.1204 239.51 39.1113C239.6 39.1022 239.688 39.0732 239.766 39.0264C239.844 38.9796 239.911 38.9162 239.962 38.8406C240.013 38.765 240.047 38.6791 240.061 38.589C240.083 38.4888 240.094 38.3866 240.095 38.284C240.102 36.48 240.106 34.678 240.097 32.876ZM240.097 32.876C240.089 32.6805 240.045 32.488 239.969 32.308C239.923 32.1989 239.847 32.1052 239.749 32.0385C239.652 31.9717 239.537 31.9348 239.419 31.932C239.28 31.9219 239.142 31.9419 239.012 31.9905C238.882 32.0392 238.765 32.1155 238.668 32.214C238.612 32.266 238.569 32.3299 238.542 32.401V38.457V38.606C238.542 38.606 238.594 38.676 238.601 38.685C238.767 38.8817 238.991 39.0198 239.242 39.079C239.328 39.1093 239.419 39.1204 239.51 39.1113C239.6 39.1022 239.688 39.0732 239.766 39.0264C239.844 38.9796 239.911 38.9162 239.962 38.8406C240.013 38.765 240.047 38.6791 240.061 38.589C240.083 38.4888 240.094 38.3866 240.095 38.284C240.102 36.48 240.106 34.678 240.097 32.876ZM246.877 23.744C239.711 23.59 232.544 23.59 225.377 23.744C224.181 23.7699 223.043 24.2631 222.206 25.1179C221.37 25.9727 220.902 27.1211 220.902 28.317V39.512C220.901 40.7082 221.37 41.8568 222.206 42.7118C223.043 43.5668 224.181 44.0601 225.377 44.086C232.544 44.24 239.711 44.24 246.877 44.086C248.073 44.0604 249.211 43.5672 250.048 42.7122C250.884 41.8572 251.353 40.7083 251.353 39.512V28.317C251.353 27.1209 250.884 25.9723 250.047 25.1175C249.211 24.2627 248.072 23.7697 246.877 23.744ZM227.477 40.53H225.412V28.847H223.272V26.892H229.623V28.842H227.478L227.477 40.53ZM234.877 35.681V40.531H233.04V39.422C232.974 39.493 232.94 39.531 232.902 39.57C232.528 40.0248 232.042 40.3734 231.492 40.581C231.217 40.6792 230.922 40.7057 230.635 40.658C230.45 40.631 230.277 40.5557 230.131 40.4398C229.986 40.3239 229.873 40.1714 229.806 39.998C229.668 39.6634 229.604 39.3035 229.616 38.942C229.616 37.607 229.616 30.542 229.616 30.472H231.44C231.44 30.534 231.45 35.606 231.451 38.08C231.447 38.214 231.456 38.348 231.479 38.48C231.485 38.5521 231.51 38.6214 231.549 38.682C231.589 38.7426 231.642 38.7927 231.705 38.8279C231.769 38.8631 231.839 38.8825 231.912 38.8842C231.984 38.886 232.056 38.8701 232.121 38.838C232.475 38.6965 232.782 38.4564 233.005 38.146C233.035 38.0893 233.047 38.0248 233.04 37.961V30.461H234.871L234.877 35.681ZM241.839 39.562C241.747 39.8974 241.541 40.1905 241.257 40.3912C240.973 40.5918 240.628 40.6876 240.282 40.662C239.986 40.6621 239.693 40.5985 239.424 40.4756C239.154 40.3528 238.915 40.1736 238.721 39.95L238.544 39.761V40.526H236.711V26.891H238.54V31.38C238.596 31.2692 238.663 31.1644 238.74 31.067C239.015 30.7415 239.384 30.5075 239.796 30.396C240.163 30.2864 240.558 30.3135 240.907 30.4723C241.257 30.6311 241.537 30.9109 241.696 31.26C241.906 31.7427 242.005 32.266 241.988 32.792C241.991 34.698 241.991 36.6044 241.988 38.511C241.995 38.867 241.944 39.2218 241.839 39.562ZM248.61 39.178C248.481 39.6054 248.229 39.9849 247.884 40.2678C247.538 40.5506 247.117 40.7241 246.673 40.766C246.085 40.8786 245.477 40.8167 244.925 40.588C244.568 40.4272 244.256 40.1826 244.015 39.8751C243.773 39.5676 243.609 39.2063 243.538 38.822C243.452 38.4483 243.407 38.0664 243.404 37.683C243.389 36.19 243.396 34.695 243.404 33.202C243.369 32.4356 243.627 31.6846 244.127 31.102C244.409 30.7837 244.764 30.5376 245.161 30.3844C245.558 30.2311 245.986 30.1751 246.41 30.221C246.681 30.2351 246.95 30.2838 247.21 30.366C247.605 30.4945 247.956 30.7313 248.223 31.0495C248.491 31.3677 248.663 31.7546 248.722 32.166C248.787 32.5011 248.82 32.8416 248.822 33.183C248.837 33.983 248.816 35.736 248.816 35.736H245.305V38.253C245.305 38.4698 245.391 38.6778 245.544 38.8311C245.697 38.9844 245.905 39.0705 246.122 39.0705C246.339 39.0705 246.547 38.9844 246.7 38.8311C246.853 38.6778 246.94 38.4698 246.94 38.253V36.959H248.826C248.844 37.7048 248.771 38.45 248.608 39.178H248.61ZM246.935 32.758C246.935 32.5412 246.848 32.3333 246.695 32.18C246.542 32.0267 246.334 31.9405 246.117 31.9405C245.9 31.9405 245.692 32.0267 245.539 32.18C245.386 32.3333 245.3 32.5412 245.3 32.758V34.171H246.935V32.758ZM239.971 32.308C239.925 32.1989 239.849 32.1052 239.751 32.0385C239.654 31.9717 239.539 31.9348 239.421 31.932C239.282 31.9219 239.144 31.9419 239.014 31.9905C238.884 32.0392 238.767 32.1155 238.67 32.214C238.614 32.266 238.571 32.3299 238.544 32.401V38.456V38.605C238.544 38.605 238.596 38.675 238.603 38.684C238.769 38.8807 238.993 39.0188 239.244 39.078C239.33 39.1084 239.421 39.1193 239.512 39.1103C239.602 39.1012 239.69 39.0722 239.768 39.0254C239.846 38.9786 239.913 38.9152 239.964 38.8396C240.015 38.764 240.049 38.6781 240.063 38.588C240.085 38.4878 240.096 38.3856 240.097 38.283C240.097 36.483 240.103 34.678 240.097 32.876C240.088 32.6818 240.045 32.4908 239.969 32.312L239.971 32.308Z" fill="#2699FB"/>
<path d="M244.655 10.801V20.926H242.779V19.838C242.572 20.038 242.394 20.238 242.2 20.405C241.865 20.7153 241.453 20.9295 241.007 21.025C240.854 21.0761 240.692 21.0954 240.531 21.0819C240.37 21.0684 240.214 21.0223 240.071 20.9464C239.929 20.8706 239.803 20.7665 239.702 20.6406C239.601 20.5147 239.527 20.3696 239.484 20.214C239.407 19.9691 239.367 19.7145 239.363 19.458V10.801H241.23V18.523C241.229 18.6256 241.238 18.728 241.256 18.829C241.259 18.8981 241.28 18.9652 241.315 19.0245C241.351 19.0839 241.4 19.1336 241.46 19.1693C241.519 19.205 241.586 19.2257 241.655 19.2295C241.724 19.2333 241.793 19.2201 241.856 19.191C242.216 19.0519 242.529 18.8112 242.756 18.498C242.783 18.4391 242.793 18.3734 242.784 18.309V10.801H244.655Z" fill="#2699FB"/>
<path d="M229.137 12.561C228.73 10.844 227.876 7.21997 227.876 7.21997H225.741C225.741 7.21997 227.381 12.66 228.115 15.086C228.14 15.1753 228.153 15.268 228.153 15.361V20.924H230.122V15.361C230.121 15.268 230.134 15.1753 230.16 15.086C230.894 12.66 232.534 7.21997 232.534 7.21997H230.399C230.399 7.21997 229.545 10.844 229.137 12.561Z" fill="#2699FB"/>
<path d="M235.103 10.548C234.39 10.548 233.707 10.8311 233.203 11.335C232.699 11.8389 232.416 12.5223 232.416 13.235V18.493C232.416 19.2056 232.699 19.8891 233.203 20.393C233.707 20.8969 234.39 21.18 235.103 21.18C235.815 21.18 236.499 20.8969 237.003 20.393C237.507 19.8891 237.79 19.2056 237.79 18.493V13.235C237.79 12.8821 237.72 12.5326 237.585 12.2065C237.45 11.8805 237.252 11.5842 237.003 11.3347C236.753 11.0851 236.457 10.8872 236.131 10.7522C235.805 10.6172 235.456 10.5478 235.103 10.548ZM235.878 18.598C235.878 18.8035 235.796 19.0006 235.651 19.146C235.505 19.2913 235.308 19.373 235.103 19.373C234.897 19.373 234.7 19.2913 234.555 19.146C234.409 19.0006 234.328 18.8035 234.328 18.598V13.128C234.328 12.9224 234.409 12.7253 234.555 12.58C234.7 12.4346 234.897 12.353 235.103 12.353C235.308 12.353 235.505 12.4346 235.651 12.58C235.796 12.7253 235.878 12.9224 235.878 13.128V18.598Z" fill="#2699FB"/>
</svg>
